<mxfile host="app.diagrams.net" agent="Mozilla/5.0 (Windows NT 10.0; Win64; x64) AppleWebKit/537.36 (KHTML, like Gecko) Chrome/135.0.0.0 Safari/537.36" version="26.2.13">
  <diagram name="Діаграма станів та переходів №3" id="ziNMLR-ftQQ4nSo8OY-k">
    <mxGraphModel dx="2088" dy="1070" grid="1" gridSize="10" guides="1" tooltips="1" connect="1" arrows="1" fold="1" page="1" pageScale="1" pageWidth="1169" pageHeight="827" math="0" shadow="0">
      <root>
        <mxCell id="0" />
        <mxCell id="1" parent="0" />
        <mxCell id="d3npRXc7WMAeSjwp4JAL-1" value="" style="ellipse;html=1;shape=startState;fillColor=#000000;strokeColor=#ff0000;" vertex="1" parent="1">
          <mxGeometry x="510" width="30" height="30" as="geometry" />
        </mxCell>
        <mxCell id="d3npRXc7WMAeSjwp4JAL-2" value="" style="edgeStyle=orthogonalEdgeStyle;html=1;verticalAlign=bottom;endArrow=open;endSize=8;strokeColor=#ff0000;rounded=0;entryX=0.5;entryY=0;entryDx=0;entryDy=0;entryPerimeter=0;" edge="1" parent="1" source="d3npRXc7WMAeSjwp4JAL-1" target="d3npRXc7WMAeSjwp4JAL-4">
          <mxGeometry relative="1" as="geometry">
            <mxPoint x="525" y="90" as="targetPoint" />
          </mxGeometry>
        </mxCell>
        <mxCell id="d3npRXc7WMAeSjwp4JAL-3" style="edgeStyle=orthogonalEdgeStyle;rounded=0;orthogonalLoop=1;jettySize=auto;html=1;exitX=0.5;exitY=1;exitDx=0;exitDy=0;entryX=0.5;entryY=0;entryDx=0;entryDy=0;" edge="1" parent="1" source="d3npRXc7WMAeSjwp4JAL-4" target="d3npRXc7WMAeSjwp4JAL-6">
          <mxGeometry relative="1" as="geometry" />
        </mxCell>
        <mxCell id="d3npRXc7WMAeSjwp4JAL-4" value="&lt;p style=&quot;margin:0px;margin-top:4px;text-align:center;&quot;&gt;&amp;nbsp;Моніторинг трафіку&lt;/p&gt;&lt;hr size=&quot;1&quot; style=&quot;border-style:solid;&quot;&gt;&lt;div style=&quot;height:2px;&quot;&gt;&lt;div style=&quot;height: 2px;&quot;&gt;&lt;span style=&quot;background-color: transparent; color: light-dark(rgb(0, 0, 0), rgb(255, 255, 255));&quot;&gt;&amp;nbsp; entry&amp;nbsp; &amp;nbsp; /&amp;nbsp;&amp;nbsp;&lt;/span&gt;&lt;span style=&quot;background-color: transparent; color: light-dark(rgb(0, 0, 0), rgb(255, 255, 255));&quot;&gt;Ініціалізувати з’єднання з системою збору даних про дорожній рух&lt;/span&gt;&lt;/div&gt;&lt;div style=&quot;height: 2px;&quot;&gt;&lt;span style=&quot;background-color: transparent; color: light-dark(rgb(0, 0, 0), rgb(255, 255, 255));&quot;&gt;&lt;br&gt;&lt;/span&gt;&lt;/div&gt;&lt;div style=&quot;height: 2px;&quot;&gt;&lt;span style=&quot;background-color: transparent; color: light-dark(rgb(0, 0, 0), rgb(255, 255, 255));&quot;&gt;&lt;br&gt;&lt;/span&gt;&lt;/div&gt;&lt;div style=&quot;height: 2px;&quot;&gt;&lt;span style=&quot;background-color: transparent; color: light-dark(rgb(0, 0, 0), rgb(255, 255, 255));&quot;&gt;&lt;br&gt;&lt;/span&gt;&lt;/div&gt;&lt;div style=&quot;height: 2px;&quot;&gt;&lt;span style=&quot;background-color: transparent; color: light-dark(rgb(0, 0, 0), rgb(255, 255, 255));&quot;&gt;&lt;br&gt;&lt;/span&gt;&lt;/div&gt;&lt;div style=&quot;height: 2px;&quot;&gt;&lt;span style=&quot;background-color: transparent; color: light-dark(rgb(0, 0, 0), rgb(255, 255, 255));&quot;&gt;&lt;br&gt;&lt;/span&gt;&lt;/div&gt;&lt;div style=&quot;height: 2px;&quot;&gt;&lt;span style=&quot;background-color: transparent; color: light-dark(rgb(0, 0, 0), rgb(255, 255, 255));&quot;&gt;&amp;nbsp;&lt;/span&gt;&lt;/div&gt;&lt;div style=&quot;height: 2px;&quot;&gt;&lt;span style=&quot;background-color: transparent; color: light-dark(rgb(0, 0, 0), rgb(255, 255, 255));&quot;&gt;&lt;br&gt;&lt;/span&gt;&lt;/div&gt;&lt;div style=&quot;height: 2px;&quot;&gt;&lt;div style=&quot;height: 2px;&quot;&gt;&lt;span style=&quot;background-color: transparent; color: light-dark(rgb(0, 0, 0), rgb(255, 255, 255));&quot;&gt;&amp;nbsp; entry&amp;nbsp; &amp;nbsp; /&amp;nbsp;&amp;nbsp;&lt;/span&gt;&lt;span style=&quot;background-color: transparent; color: light-dark(rgb(0, 0, 0), rgb(255, 255, 255));&quot;&gt;Запустити прийом потокових даних (GPS, сенсори, API трафіку)&lt;/span&gt;&lt;/div&gt;&lt;div style=&quot;height: 2px;&quot;&gt;&lt;span style=&quot;background-color: transparent; color: light-dark(rgb(0, 0, 0), rgb(255, 255, 255));&quot;&gt;&lt;br&gt;&lt;/span&gt;&lt;/div&gt;&lt;div style=&quot;height: 2px;&quot;&gt;&lt;span style=&quot;background-color: transparent; color: light-dark(rgb(0, 0, 0), rgb(255, 255, 255));&quot;&gt;&lt;br&gt;&lt;/span&gt;&lt;/div&gt;&lt;div style=&quot;height: 2px;&quot;&gt;&lt;span style=&quot;background-color: transparent; color: light-dark(rgb(0, 0, 0), rgb(255, 255, 255));&quot;&gt;&lt;br&gt;&lt;/span&gt;&lt;/div&gt;&lt;/div&gt;&lt;div style=&quot;height: 2px;&quot;&gt;&lt;pre&gt; do    / Приймати дані про стан руху та аналізувати їх &lt;br&gt; exit  / Набір даних достатній для виявлення потенційних заторів&lt;/pre&gt;&lt;/div&gt;&lt;/div&gt;" style="verticalAlign=top;align=left;overflow=fill;html=1;whiteSpace=wrap;" vertex="1" parent="1">
          <mxGeometry x="308.75" y="83" width="432.5" height="90" as="geometry" />
        </mxCell>
        <mxCell id="d3npRXc7WMAeSjwp4JAL-5" style="edgeStyle=orthogonalEdgeStyle;rounded=0;orthogonalLoop=1;jettySize=auto;html=1;exitX=0.5;exitY=1;exitDx=0;exitDy=0;entryX=0.5;entryY=0;entryDx=0;entryDy=0;" edge="1" parent="1" source="d3npRXc7WMAeSjwp4JAL-6" target="d3npRXc7WMAeSjwp4JAL-8">
          <mxGeometry relative="1" as="geometry" />
        </mxCell>
        <mxCell id="d3npRXc7WMAeSjwp4JAL-6" value="&lt;p style=&quot;margin:0px;margin-top:4px;text-align:center;&quot;&gt;Виявлення заторів&lt;/p&gt;&lt;div style=&quot;height: 2px;&quot;&gt;&lt;span style=&quot;background-color: transparent; color: light-dark(rgb(0, 0, 0), rgb(255, 255, 255));&quot;&gt;&amp;nbsp;&lt;/span&gt;&lt;/div&gt;&lt;hr size=&quot;1&quot; style=&quot;border-style:solid;&quot;&gt;&lt;div style=&quot;height:2px;&quot;&gt;&lt;div style=&quot;height: 2px;&quot;&gt;&lt;span style=&quot;background-color: transparent; color: light-dark(rgb(0, 0, 0), rgb(255, 255, 255));&quot;&gt;&amp;nbsp; entry&amp;nbsp; &amp;nbsp; /&amp;nbsp;&amp;nbsp;&lt;/span&gt;&lt;span style=&quot;background-color: transparent; color: light-dark(rgb(0, 0, 0), rgb(255, 255, 255));&quot;&gt;Запустити сканування отриманих даних&lt;/span&gt;&lt;/div&gt;&lt;div style=&quot;height: 2px;&quot;&gt;&lt;pre&gt; do    / Визначити, чи є дані ознаками заторової ситуації&lt;br&gt;&lt;br&gt;&lt;/pre&gt;&lt;/div&gt;&lt;/div&gt;" style="verticalAlign=top;align=left;overflow=fill;html=1;whiteSpace=wrap;" vertex="1" parent="1">
          <mxGeometry x="335" y="230" width="380" height="70" as="geometry" />
        </mxCell>
        <mxCell id="d3npRXc7WMAeSjwp4JAL-7" style="edgeStyle=orthogonalEdgeStyle;rounded=0;orthogonalLoop=1;jettySize=auto;html=1;exitX=0.5;exitY=1;exitDx=0;exitDy=0;entryX=0.5;entryY=0;entryDx=0;entryDy=0;" edge="1" parent="1" source="d3npRXc7WMAeSjwp4JAL-8" target="d3npRXc7WMAeSjwp4JAL-10">
          <mxGeometry relative="1" as="geometry" />
        </mxCell>
        <mxCell id="d3npRXc7WMAeSjwp4JAL-8" value="&lt;p style=&quot;margin:0px;margin-top:4px;text-align:center;&quot;&gt;Аналіз заторів&lt;/p&gt;&lt;hr size=&quot;1&quot; style=&quot;border-style:solid;&quot;&gt;&lt;div style=&quot;height:2px;&quot;&gt;&lt;/div&gt;&lt;div style=&quot;height:2px;&quot;&gt;&lt;div style=&quot;height: 2px;&quot;&gt;&lt;span style=&quot;background-color: transparent; color: light-dark(rgb(0, 0, 0), rgb(255, 255, 255));&quot;&gt;&amp;nbsp; entry&amp;nbsp; &amp;nbsp; /&amp;nbsp;&amp;nbsp;&lt;/span&gt;&lt;span style=&quot;background-color: transparent; color: light-dark(rgb(0, 0, 0), rgb(255, 255, 255));&quot;&gt;Ініціалізувати алгоритми детального аналізу заторів на виявлених ділянках&lt;/span&gt;&lt;/div&gt;&lt;div style=&quot;height: 2px;&quot;&gt;&lt;pre&gt; do    / Оцінити характер заторів та hозрахувати параметри, які вплинуть на корекцію маршруту&lt;br&gt; exit  / Прийняти рішення&lt;/pre&gt;&lt;/div&gt;&lt;/div&gt;" style="verticalAlign=top;align=left;overflow=fill;html=1;whiteSpace=wrap;" vertex="1" parent="1">
          <mxGeometry x="215" y="360" width="620" height="80" as="geometry" />
        </mxCell>
        <mxCell id="d3npRXc7WMAeSjwp4JAL-9" style="edgeStyle=orthogonalEdgeStyle;rounded=0;orthogonalLoop=1;jettySize=auto;html=1;exitX=0.5;exitY=1;exitDx=0;exitDy=0;entryX=0.5;entryY=0;entryDx=0;entryDy=0;" edge="1" parent="1" source="d3npRXc7WMAeSjwp4JAL-10" target="d3npRXc7WMAeSjwp4JAL-12">
          <mxGeometry relative="1" as="geometry">
            <mxPoint x="525" y="590" as="sourcePoint" />
          </mxGeometry>
        </mxCell>
        <mxCell id="d3npRXc7WMAeSjwp4JAL-10" value="&lt;p style=&quot;margin:0px;margin-top:4px;text-align:center;&quot;&gt;Корекція маршруту&lt;/p&gt;&lt;hr size=&quot;1&quot; style=&quot;border-style:solid;&quot;&gt;&lt;div style=&quot;height:2px;&quot;&gt;&lt;div style=&quot;height: 2px;&quot;&gt;&lt;span style=&quot;background-color: transparent; color: light-dark(rgb(0, 0, 0), rgb(255, 255, 255));&quot;&gt;&amp;nbsp; entry&amp;nbsp; &amp;nbsp; /&amp;nbsp;&amp;nbsp;&lt;/span&gt;&lt;span style=&quot;background-color: transparent; color: light-dark(rgb(0, 0, 0), rgb(255, 255, 255));&quot;&gt;Ініціалізувати модуль перерахунку маршруту&lt;/span&gt;&lt;/div&gt;&lt;div style=&quot;height: 2px;&quot;&gt;&lt;pre&gt; do    / Розрахувати альтернативні маршрути, враховуючи нові умови дорожнього руху&lt;br&gt; exit  / Обчислити оптимальний варіант із зниженими показниками заторів&lt;/pre&gt;&lt;/div&gt;&lt;/div&gt;" style="verticalAlign=top;align=left;overflow=fill;html=1;whiteSpace=wrap;" vertex="1" parent="1">
          <mxGeometry x="250" y="520" width="550" height="80" as="geometry" />
        </mxCell>
        <mxCell id="d3npRXc7WMAeSjwp4JAL-11" style="edgeStyle=orthogonalEdgeStyle;rounded=0;orthogonalLoop=1;jettySize=auto;html=1;exitX=0.5;exitY=1;exitDx=0;exitDy=0;entryX=0.5;entryY=0;entryDx=0;entryDy=0;" edge="1" parent="1" source="d3npRXc7WMAeSjwp4JAL-12" target="d3npRXc7WMAeSjwp4JAL-14">
          <mxGeometry relative="1" as="geometry" />
        </mxCell>
        <mxCell id="d3npRXc7WMAeSjwp4JAL-12" value="&lt;p style=&quot;margin:0px;margin-top:4px;text-align:center;&quot;&gt;Перевірка нового маршруту&lt;/p&gt;&lt;hr size=&quot;1&quot; style=&quot;border-style:solid;&quot;&gt;&lt;div style=&quot;height:2px;&quot;&gt;&lt;div style=&quot;height: 2px;&quot;&gt;&lt;span style=&quot;background-color: transparent; color: light-dark(rgb(0, 0, 0), rgb(255, 255, 255));&quot;&gt;&amp;nbsp; entry&amp;nbsp; &amp;nbsp; /&amp;nbsp;&amp;nbsp;&lt;/span&gt;&lt;span style=&quot;background-color: transparent; color: light-dark(rgb(0, 0, 0), rgb(255, 255, 255));&quot;&gt;Ініціалізувати параметри валідації&lt;/span&gt;&lt;/div&gt;&lt;div style=&quot;height: 2px;&quot;&gt;&lt;pre&gt; do    / Провести порівняння розрахованого маршруту з пороговими значеннями&lt;br&gt; exit  / Прийняти рішення&lt;/pre&gt;&lt;/div&gt;&lt;/div&gt;" style="verticalAlign=top;align=left;overflow=fill;html=1;whiteSpace=wrap;" vertex="1" parent="1">
          <mxGeometry x="260" y="680" width="530" height="80" as="geometry" />
        </mxCell>
        <mxCell id="d3npRXc7WMAeSjwp4JAL-13" style="edgeStyle=orthogonalEdgeStyle;rounded=0;orthogonalLoop=1;jettySize=auto;html=1;exitX=0.5;exitY=1;exitDx=0;exitDy=0;entryX=0.5;entryY=0;entryDx=0;entryDy=0;" edge="1" parent="1" source="d3npRXc7WMAeSjwp4JAL-14" target="d3npRXc7WMAeSjwp4JAL-15">
          <mxGeometry relative="1" as="geometry">
            <mxPoint x="525" y="1019.9999999999998" as="targetPoint" />
          </mxGeometry>
        </mxCell>
        <mxCell id="d3npRXc7WMAeSjwp4JAL-14" value="&lt;p style=&quot;margin:0px;margin-top:4px;text-align:center;&quot;&gt;Оновлення маршруту&lt;/p&gt;&lt;hr size=&quot;1&quot; style=&quot;border-style:solid;&quot;&gt;&lt;div style=&quot;height:2px;&quot;&gt;&lt;div style=&quot;height: 2px;&quot;&gt;&lt;span style=&quot;background-color: transparent; color: light-dark(rgb(0, 0, 0), rgb(255, 255, 255));&quot;&gt;&amp;nbsp; entry&amp;nbsp; &amp;nbsp; /&amp;nbsp;&amp;nbsp;&lt;/span&gt;Ініціалізувати оновлення даних у системі&lt;span style=&quot;background-color: transparent; color: light-dark(rgb(0, 0, 0), rgb(255, 255, 255));&quot;&gt;&amp;nbsp;ділянках&lt;/span&gt;&lt;/div&gt;&lt;div style=&quot;height: 2px;&quot;&gt;&lt;pre&gt; do    / Внести нові параметри маршруту в базу даних та оновити інформацію&lt;br&gt; exit  / Завершити процес оновлення&lt;/pre&gt;&lt;/div&gt;&lt;/div&gt;" style="verticalAlign=top;align=left;overflow=fill;html=1;whiteSpace=wrap;" vertex="1" parent="1">
          <mxGeometry x="275" y="827" width="500" height="93" as="geometry" />
        </mxCell>
        <mxCell id="d3npRXc7WMAeSjwp4JAL-15" value="" style="ellipse;html=1;shape=endState;fillColor=#000000;strokeColor=#ff0000;" vertex="1" parent="1">
          <mxGeometry x="510" y="990" width="30" height="30" as="geometry" />
        </mxCell>
        <mxCell id="d3npRXc7WMAeSjwp4JAL-16" style="edgeStyle=orthogonalEdgeStyle;rounded=0;orthogonalLoop=1;jettySize=auto;html=1;exitX=0;exitY=0.25;exitDx=0;exitDy=0;" edge="1" parent="1">
          <mxGeometry relative="1" as="geometry">
            <mxPoint x="259.95" y="670" as="sourcePoint" />
            <mxPoint x="259.95" y="700.0526315789475" as="targetPoint" />
            <Array as="points">
              <mxPoint x="259.95" y="745" />
              <mxPoint x="169.95" y="745" />
              <mxPoint x="169.95" y="700" />
            </Array>
          </mxGeometry>
        </mxCell>
        <mxCell id="d3npRXc7WMAeSjwp4JAL-17" value="Дані отримано()[Виявлено підвищену завантаженість] / Визначити наявність заторів" style="text;whiteSpace=wrap;html=1;" vertex="1" parent="1">
          <mxGeometry x="586" y="173" width="320" height="40" as="geometry" />
        </mxCell>
        <mxCell id="d3npRXc7WMAeSjwp4JAL-18" value="Затор встановлено() / Проаналізувати ситуацію" style="text;whiteSpace=wrap;html=1;" vertex="1" parent="1">
          <mxGeometry x="590" y="320" width="340" height="30" as="geometry" />
        </mxCell>
        <mxCell id="d3npRXc7WMAeSjwp4JAL-19" value="Аналіз завершено() / Перерахувати маршрут" style="text;whiteSpace=wrap;html=1;" vertex="1" parent="1">
          <mxGeometry x="585" y="480" width="265" height="40" as="geometry" />
        </mxCell>
        <mxCell id="d3npRXc7WMAeSjwp4JAL-20" value="Маршрут перераховано() / Перевірити нові дані" style="text;whiteSpace=wrap;html=1;" vertex="1" parent="1">
          <mxGeometry x="590" y="620" width="210" height="40" as="geometry" />
        </mxCell>
        <mxCell id="d3npRXc7WMAeSjwp4JAL-21" value="Дані не валідні()[Помилка в розрахунку] / Повторити перевірку маршруту" style="text;whiteSpace=wrap;html=1;" vertex="1" parent="1">
          <mxGeometry x="30" y="740" width="260" height="40" as="geometry" />
        </mxCell>
        <mxCell id="d3npRXc7WMAeSjwp4JAL-22" value="Дані валідні() / Оновити маршрут в системі" style="text;whiteSpace=wrap;html=1;" vertex="1" parent="1">
          <mxGeometry x="590" y="790" width="245" height="40" as="geometry" />
        </mxCell>
        <mxCell id="d3npRXc7WMAeSjwp4JAL-23" value="Маршрут оновлено()/ Повернути моніторинг для подальшого аналізу" style="text;whiteSpace=wrap;html=1;" vertex="1" parent="1">
          <mxGeometry x="577.5" y="940" width="280" height="40" as="geometry" />
        </mxCell>
      </root>
    </mxGraphModel>
  </diagram>
</mxfile>
